# xmcd CD database file
#
# Track frame offsets:
#	150
#	15185
#	25307
#	38265
#	50605
#	62830
#	73550
#	90007
#	102160
#	118137
#	127122
#	139150
#	151175
#	164365
#	176825
#	188322
#	200030
#	210192
#	220867
#	234357
#
# Disc length: 3269 seconds
#
# Revision: 0
# Processed by: cddbd v1.5.1PL0 Copyright (c) Steve Scherf et al.
# Submitted via: CDex 1.51
#
DISCID=020cc314
DTITLE=K30Y4004 - 西部劇のテーマ
DYEAR=1900
DGENRE=Country
TTITLE0=大いなる西部
TTITLE1=黄色いリボン
TTITLE2=「アラモ」遥かなるアラモ
TTITLE3=「リオ・ブラボー」ライフルと愛馬
TTITLE4=OK牧場の決闘
TTITLE5=荒野の七人
TTITLE6=「真昼の決闘」ハイ・ヌーン
TTITLE7=誇り高き男
TTITLE8=「シェーン」遥かなる山の呼び声
TTITLE9=「荒野の決闘」いとしのクレメンタイン
TTITLE10=駅馬車
TTITLE11=「荒野の用心棒」さすらいの口笛
TTITLE12=「続・荒野の用心棒」さすらいのジャンゴ
TTITLE13=夕陽のガンマン
TTITLE14=続・夕陽のガンマン
TTITLE15=ガンマン無頼
TTITLE16=さすらいの一匹狼
TTITLE17=「腰抜け二挺拳銃」ボタンとリボン
TTITLE18=「大砂塵」ジャニー・ギター
TTITLE19=「騎兵隊」騎兵隊のマーチ
EXTD=
EXTT0=
EXTT1=
EXTT2=
EXTT3=
EXTT4=
EXTT5=
EXTT6=
EXTT7=
EXTT8=
EXTT9=
EXTT10=
EXTT11=
EXTT12=
EXTT13=
EXTT14=
EXTT15=
EXTT16=
EXTT17=
EXTT18=
EXTT19=
PLAYORDER=
